<?xml version="1.0" standalone="no"?><!DOCTYPE svg PUBLIC "-//W3C//DTD SVG 1.1//EN" "http://www.w3.org/Graphics/SVG/1.1/DTD/svg11.dtd"><svg t="1496420396556" class="icon" style="" viewBox="0 0 1024 1024" version="1.1" xmlns="http://www.w3.org/2000/svg" p-id="4180" xmlns:xlink="http://www.w3.org/1999/xlink" width="200" height="200"><defs><style type="text/css"></style></defs><path d="M802.08 643.488c-41.451-41.279-89.99-72.64-144.342-93.193l-18.266-6.892 16.199-10.903c13.585-9.132 26.286-19.644 37.808-31.163 48.146-48.172 74.632-112.195 74.632-180.304 0-68.085-26.486-132.133-74.632-180.304-48.244-48.197-112.246-74.707-180.33-74.707-68.134 0-132.183 26.511-180.329 74.707-48.147 48.17-74.633 112.219-74.633 180.304 0 68.11 26.486 132.133 74.633 180.281 11.568 11.594 24.27 22.08 37.809 31.188l16.147 10.903-18.217 6.892c-54.398 20.554-102.939 51.914-144.291 93.193-77.341 77.094-119.875 179.491-119.875 288.365 0 14.324 11.668 25.993 25.993 25.993 14.326 0 25.993-11.669 25.993-25.993 0-95.09 37.072-184.439 104.369-251.615 67.247-67.076 156.748-104.098 251.959-104.221 96.047 0.123 185.498 37.145 252.794 104.221 67.297 67.176 104.418 156.525 104.418 251.615 0 14.324 11.617 25.993 25.993 25.993 14.325 0 25.994-11.669 25.994-25.993C921.908 823.005 879.375 720.581 802.08 643.488zM369.596 464.587c-38.349-38.375-59.469-89.353-59.469-143.555 0-54.203 21.12-105.18 59.469-143.555 38.35-38.349 89.353-59.469 143.556-59.469 54.202 0 105.155 21.12 143.505 59.469 38.4 38.375 59.47 89.353 59.47 143.555 0 54.201-21.069 105.179-59.47 143.555-38.203 38.178-89.008 59.272-143.063 59.444C458.652 523.858 407.848 502.764 369.596 464.587z" p-id="4181" fill="#bfbfbf"></path></svg>
