<?xml version="1.0" standalone="no"?><!DOCTYPE svg PUBLIC "-//W3C//DTD SVG 1.1//EN" "http://www.w3.org/Graphics/SVG/1.1/DTD/svg11.dtd"><svg t="1497345127835" class="icon" style="" viewBox="0 0 1024 1024" version="1.1" xmlns="http://www.w3.org/2000/svg" p-id="2376" xmlns:xlink="http://www.w3.org/1999/xlink" width="200" height="200"><defs><style type="text/css"></style></defs><path d="M510.539 35.468c-262.826 0-475.884 213.498-475.884 476.864 0 263.361 213.061 476.861 475.884 476.861 262.828 0 475.884-213.5 475.884-476.861C986.423 248.966 773.362 35.468 510.539 35.468zM511.271 974.973c-249.346 0-461.719-212.786-461.719-462.641S261.926 49.685 511.271 49.685s461.711 212.791 461.711 462.646S760.617 974.973 511.271 974.973zM548.831 241.311l-2.23 2.625c-11.32 13.282-10.41 32.96 1.89 45.338 59.045 59.423 95.53 141.285 95.53 231.678 0 89.03-35.4 169.791-92.895 228.981-12.01 12.37-12.855 31.76-1.76 44.96 12.665 15.065 35.585 16.04 49.37 2 70.415-71.675 113.845-169.945 113.845-278.361 0-108.783-43.73-207.346-114.56-279.091-13.75-13.923-36.5-13.02-49.19 1.873L548.831 241.311zM489.596 357.436c-11.615-15.82-34.59-17.643-48.705-4l-0.67 0.65c-11.708 11.31-13.245 29.533-3.595 42.64 26.053 35.405 41.455 79.133 41.455 126.46 0 43.83-13.213 84.575-35.858 118.47-9.123 13.665-6.45 32.015 6.057 42.665 14.74 12.545 37.185 9.57 47.98-6.49 29.855-44.425 47.28-97.9 47.28-155.45 0-61.71-20.035-118.74-53.948-164.945L489.596 357.436zM297.533 519.481c0 40.36 23.152 73.08 51.713 73.08 28.56 0 51.71-32.72 51.71-73.08 0-40.355-23.15-73.073-51.71-73.073C320.686 446.409 297.533 479.126 297.533 519.481z" p-id="2377" fill="#1296db"></path></svg>
