<?xml version="1.0" standalone="no"?><!DOCTYPE svg PUBLIC "-//W3C//DTD SVG 1.1//EN" "http://www.w3.org/Graphics/SVG/1.1/DTD/svg11.dtd"><svg t="1497263696188" class="icon" style="" viewBox="0 0 1024 1024" version="1.1" xmlns="http://www.w3.org/2000/svg" p-id="3137" xmlns:xlink="http://www.w3.org/1999/xlink" width="200" height="200"><defs><style type="text/css"></style></defs><path d="M416.576 225.728C416.576 278.4 459.264 321.152 512 321.152S607.424 278.4 607.424 225.728 564.736 130.304 512 130.304 416.576 172.992 416.576 225.728zM416.576 512c0 52.736 42.752 95.424 95.424 95.424S607.424 564.736 607.424 512 564.736 416.576 512 416.576 416.576 459.264 416.576 512zM416.576 798.272c0 52.736 42.752 95.424 95.424 95.424s95.424-42.752 95.424-95.424S564.736 702.848 512 702.848 416.576 745.6 416.576 798.272z" p-id="3138" fill="#ffffff"></path><path d="M416.576 225.728C416.576 278.4 459.264 321.152 512 321.152S607.424 278.4 607.424 225.728 564.736 130.304 512 130.304 416.576 172.992 416.576 225.728zM416.576 512c0 52.736 42.752 95.424 95.424 95.424S607.424 564.736 607.424 512 564.736 416.576 512 416.576 416.576 459.264 416.576 512zM416.576 798.272c0 52.736 42.752 95.424 95.424 95.424s95.424-42.752 95.424-95.424S564.736 702.848 512 702.848 416.576 745.6 416.576 798.272z" p-id="3139" fill="#ffffff"></path></svg>
